<?xml version="1.0" standalone="no"?>
<!DOCTYPE svg PUBLIC "-//W3C//DTD SVG 20010904//EN"
 "http://www.w3.org/TR/2001/REC-SVG-20010904/DTD/svg10.dtd">
<svg version="1.0" xmlns="http://www.w3.org/2000/svg"
 width="32.000000pt" height="32.000000pt" viewBox="0 0 32.000000 32.000000"
 preserveAspectRatio="xMidYMid meet">

<g transform="translate(0.000000,32.000000) scale(0.100000,-0.100000)"
fill="#db2777" stroke="none">
<path d="M63 290 c-42 -25 -59 -79 -44 -137 6 -23 16 -45 21 -48 6 -3 10 -28
10 -56 0 -42 3 -49 20 -49 17 0 20 7 20 50 0 32 -7 61 -20 82 -27 45 -26 89 3
116 38 36 153 28 179 -12 4 -6 8 -39 8 -73 0 -49 -3 -63 -15 -63 -10 0 -15
-10 -15 -30 0 -27 -3 -30 -29 -30 -18 0 -35 8 -43 19 -10 14 -18 17 -28 11
-13 -8 -13 -13 2 -37 15 -25 23 -28 77 -31 l61 -3 0 31 c0 20 5 30 15 30 24 0
21 155 -5 197 -32 53 -154 72 -217 33z"/>
<path d="M140 215 c0 -20 -5 -25 -25 -25 -18 0 -25 -5 -25 -20 0 -15 7 -20 25
-20 20 0 25 -5 25 -25 0 -18 5 -25 20 -25 15 0 20 7 20 25 0 20 5 25 25 25 18
0 25 5 25 20 0 15 -7 20 -25 20 -20 0 -25 5 -25 25 0 18 -5 25 -20 25 -15 0
-20 -7 -20 -25z"/>
</g>
</svg>
